<svg width="100" height="100" viewBox="0 0 100 100" fill="none" xmlns="http://www.w3.org/2000/svg">
<path d="M92.8547 68.044C92.0837 61.302 88.8679 59.5813 87.0061 53.8172C86.8368 53.3094 86.912 53.4223 86.4983 51.6357C82.9063 36.2336 71.7543 31.5509 74.0863 29.0685C75.083 28.0154 77.4432 26.8306 77.6407 24.367C77.6407 24.2824 77.6407 24.1695 77.6407 24.0379C77.6416 22.7223 77.1645 21.4513 76.2982 20.4612C75.4318 19.4712 74.2353 18.8297 72.9312 18.656C71.6272 18.4824 70.3045 18.7885 69.2093 19.5173C68.1141 20.2461 67.321 21.3481 66.9776 22.618H33.9919C32.6378 18.3491 26.8362 16.5625 23.6486 21.9598C23.4109 22.7389 23.3122 23.5537 23.3571 24.367C23.5545 26.7836 25.9147 27.9683 26.9114 29.0685C29.2434 31.5415 18.082 36.2242 14.4995 51.6357C14.0857 53.4223 14.1609 53.3094 13.9917 53.8172C12.1111 59.6189 8.91406 61.3396 8.14301 68.044C7.97203 69.5143 7.94997 70.9981 8.07719 72.4728C8.31226 74.8893 8.80122 79.29 12.1299 83.0606C17.1699 88.7682 24.8051 88.6459 26.1592 88.6083H74.848C76.202 88.6083 83.8467 88.7682 88.8867 83.0606C92.2153 79.2994 92.7043 74.8893 92.9394 72.4728C93.0603 70.9974 93.032 69.5136 92.8547 68.044Z" fill="#C4BBD7"/>
<path d="M91.3973 78.3122C91.7076 77.5599 94.1429 71.4574 91.5759 65.7028C87.6078 56.8451 74.3214 54.6166 65.2475 56.516C59.8038 57.7253 54.8266 60.4849 50.9173 64.4616C47.0681 60.4066 42.0654 57.6328 36.5871 56.516C25.642 54.3627 17.2545 59.9481 15.656 61.0671C9.75091 65.3172 7.49419 72.8867 10.0142 79.1303C12.8915 86.3518 21.5611 90.4139 29.6289 87.593H72.2622C76.0387 88.7908 80.1305 88.4976 83.6977 86.7735C87.2648 85.0494 90.0367 82.0251 91.4443 78.3216L91.3973 78.3122Z" fill="white"/>
<path d="M50.3437 66.2763C50.5263 67.4229 50.4163 68.597 50.024 69.6896C49.8444 70.0982 49.5858 70.4672 49.2631 70.7754C48.9403 71.0836 48.5598 71.325 48.1434 71.4856C47.014 71.9004 45.804 72.0484 44.6079 71.9181C43.5251 71.8806 42.4873 71.4761 41.6647 70.771C41.1664 70.2538 40.3765 71.0437 40.8749 71.5608C41.8635 72.4362 43.1199 72.9501 44.4386 73.0183C45.8424 73.1917 47.2672 73.014 48.5853 72.5011C49.6347 72.0996 50.4942 71.3173 50.9925 70.3102C51.5228 69.0361 51.6951 67.6413 51.4909 66.2763C51.4062 65.5711 50.2873 65.5617 50.3719 66.2763H50.3437Z" fill="black"/>
<path d="M50.8891 66.2763C50.6925 67.6422 50.868 69.0357 51.3969 70.3102C51.8891 71.3184 52.7463 72.1017 53.7946 72.5011C55.117 73.0102 56.5439 73.1878 57.9508 73.0183C59.2694 72.9501 60.5259 72.4362 61.5145 71.5608C62.0128 71.0437 61.223 70.2538 60.7247 70.771C59.9021 71.4761 58.8643 71.8806 57.7815 71.9181C56.5854 72.0491 55.3752 71.9011 54.246 71.4856C52.1021 70.6205 51.7636 68.345 52.008 66.2763C52.0927 65.5617 50.9737 65.5711 50.8891 66.2763Z" fill="black"/>
<path d="M28.792 51.805C27.5132 49.9996 25.7549 48.2507 26.1216 46.1068C26.1216 45.9281 26.2814 45.1665 26.6106 45.1006C26.6764 45.1006 26.8456 45.1006 27.4474 45.8717C27.8235 46.3606 27.9928 46.6709 28.2373 47.0283C28.5365 47.4475 28.8632 47.8464 29.2152 48.2224C30.2025 49.4072 30.7008 50.009 30.7949 50.6296C30.7949 50.7425 31.0111 51.8896 30.3811 52.2281C30.1125 52.3746 29.7979 52.4124 29.5022 52.3337C29.2065 52.2549 28.9523 52.0657 28.792 51.805Z" fill="black"/>
<path d="M71.5851 51.805C72.8733 49.9996 74.6223 48.2507 74.2556 46.1068C74.2556 45.9281 74.0957 45.1665 73.7666 45.1006C73.7102 45.1006 73.5316 45.1006 72.9298 45.8717C72.5536 46.3606 72.3844 46.6709 72.1399 47.0283C71.8557 47.4485 71.5414 47.8476 71.1996 48.2224C70.2123 49.4072 69.7139 50.009 69.6199 50.6296C69.6199 50.7425 69.4036 51.8896 70.0336 52.2281C70.2985 52.3635 70.6043 52.3951 70.8913 52.3169C71.1782 52.2386 71.4257 52.0561 71.5851 51.805Z" fill="black"/>
<path d="M51.1524 62.9852H49.7043C49.5293 62.9849 49.3562 63.0221 49.1968 63.0945C49.0375 63.1668 48.8955 63.2725 48.7805 63.4044C48.6655 63.5364 48.5801 63.6915 48.5302 63.8592C48.4804 64.027 48.4671 64.2035 48.4913 64.3769L48.8392 66.8687C48.878 67.1603 49.0214 67.4279 49.2429 67.6217C49.4643 67.8154 49.7486 67.9221 50.0428 67.9218H52.1021C52.3963 67.9221 52.6806 67.8154 52.902 67.6217C53.1235 67.4279 53.2669 67.1603 53.3057 66.8687L53.6536 64.3769C53.6778 64.2035 53.6645 64.027 53.6147 63.8592C53.5648 63.6915 53.4794 63.5364 53.3644 63.4044C53.2494 63.2725 53.1074 63.1668 52.9481 63.0945C52.7887 63.0221 52.6156 62.9849 52.4406 62.9852H51.1524Z" fill="black"/>
<path d="M25.2565 90C22.3133 90 14.9132 89.37 9.79794 83.5684C5.83927 79.0831 5.34092 73.9679 5.09644 71.5043C4.94632 69.8451 4.97152 68.1746 5.17165 66.5207C5.55744 63.1069 6.74648 59.833 8.64136 56.9672C9.67225 55.3486 10.5057 53.6124 11.1238 51.7956C11.1693 51.6568 11.2069 51.5155 11.2366 51.3725C11.293 51.0998 11.387 50.6672 11.5751 49.8304C13.8882 39.9008 19.1445 34.1085 22.2851 30.6576C22.8023 30.0934 23.3853 29.4446 23.799 28.9369C22.539 27.9119 20.602 26.2288 20.3763 23.4173C20.3655 23.2357 20.3655 23.0536 20.3763 22.8719C20.3689 21.813 20.5707 20.763 20.9702 19.7823C21.3698 18.8016 21.9591 17.9095 22.7044 17.1573C23.4497 16.405 24.3362 15.8073 25.3132 15.3987C26.2901 14.99 27.3381 14.7784 28.3971 14.7759C29.7945 14.8007 31.1624 15.1826 32.3704 15.8854C33.5785 16.5882 34.5866 17.5885 35.2989 18.791H64.9466C65.8326 17.2601 67.1988 16.0641 68.8335 15.3884C70.4681 14.7126 72.28 14.5949 73.9884 15.0533C75.6968 15.5117 77.2064 16.5208 78.2831 17.9241C79.3599 19.3274 79.9438 21.0467 79.9444 22.8155C79.9555 23.0003 79.9555 23.1855 79.9444 23.3703C79.7187 26.1912 77.7817 27.8555 76.5217 28.8805C76.9354 29.3882 77.5278 30.037 78.0355 30.6012C81.1761 34.0521 86.4324 39.8444 88.7456 49.7645C88.943 50.6108 89.0277 51.0433 89.0841 51.316C89.1137 51.4591 89.1514 51.6003 89.1969 51.7392C89.815 53.5559 90.6484 55.2922 91.6793 56.9108C93.5546 59.7919 94.724 63.0747 95.0926 66.4925C95.2859 68.147 95.3079 69.817 95.1584 71.4761C94.914 73.9303 94.425 79.0549 90.4569 83.5401C84.9562 89.7649 76.8508 90.0376 74.4718 89.9624H25.2941L25.2565 90ZM25.5762 22.2983C25.3599 23.4643 26.3754 24.273 27.2405 24.9782C27.6611 25.313 28.0599 25.6742 28.4347 26.0596C31.0205 28.8052 28.4347 31.6449 26.1498 34.1555C23.169 37.4372 18.6274 42.402 16.6621 50.9963C16.4835 51.7768 16.3988 52.1811 16.3424 52.435C16.2848 52.7542 16.2031 53.0685 16.0979 53.3753C15.3642 55.56 14.3731 57.6496 13.1454 59.6001C11.6063 61.8403 10.6379 64.4227 10.3245 67.1225C10.1695 68.4113 10.1475 69.7126 10.2587 71.0059C10.4655 73.0652 10.8323 76.9016 13.672 80.1174C17.6871 84.6779 23.8742 84.819 25.6608 84.819H74.5564C76.3524 84.8754 82.5302 84.7155 86.5452 80.1174C89.3662 76.9016 89.7611 73.0652 89.9585 71.0059C90.0693 69.7128 90.0504 68.4118 89.9021 67.1225C89.5887 64.4227 88.6203 61.8403 87.0812 59.6001C85.86 57.6335 84.8783 55.5279 84.1569 53.3283C84.0561 53.0202 83.9744 52.7062 83.9124 52.388C83.856 52.1341 83.7714 51.7298 83.5928 50.9493C81.5899 42.355 77.0858 37.3902 74.1051 34.1085C71.8202 31.5979 69.2344 28.7582 71.8296 26.0125C72.1995 25.6315 72.5954 25.2764 73.0144 24.95C73.9547 24.1507 74.8385 23.4549 74.7069 22.0633C74.5753 20.6716 72.8263 19.9288 71.6885 20.004C71.1015 20.0424 70.5412 20.2634 70.086 20.636C69.6307 21.0086 69.3033 21.5142 69.1497 22.0821L68.6231 24.0097H31.7163L31.1427 22.1855C30.9688 21.5894 30.6174 21.0604 30.1353 20.669C29.6532 20.2776 29.0632 20.0424 28.4441 19.9946C27.8573 20.0237 27.2901 20.2148 26.8054 20.5468C26.3207 20.8788 25.9376 21.3386 25.6984 21.8752C25.6451 22.0123 25.6042 22.1539 25.5762 22.2983Z" fill="black"/>
<path d="M67.6077 23.7371C67.1852 22.4565 66.5803 21.2436 65.8116 20.1357C64.0627 17.5969 60.2451 14.776 55.2803 13.5724C52.1883 12.8435 48.9692 12.8435 45.8773 13.5724C41.3743 14.5579 37.3837 17.1482 34.6501 20.8597C33.7224 22.1403 33.1454 23.6411 32.9764 25.2133C32.9073 25.7684 32.8853 26.3283 32.9105 26.8871C32.9105 27.6675 33.3713 28.0812 34.3022 28.2599L34.5937 28.3069C34.7159 28.9181 34.8005 29.4917 34.9604 30.0559C35.628 32.369 37.4428 33.5726 40.5458 33.4504C42.1246 33.3655 43.6956 33.1707 45.2473 32.8674C48.4377 32.2361 51.7166 32.1915 54.923 32.7357C56.7085 33.0655 58.5101 33.3009 60.3203 33.441C62.7557 33.6384 65.0218 32.811 65.8305 30.6859C66.095 29.9061 66.3148 29.1118 66.4887 28.3069C67.8145 28.0436 68.2188 27.6581 68.106 26.5203C68.0481 25.5764 67.8809 24.6424 67.6077 23.7371Z" fill="#1EC777"/>
<path d="M60.9691 35.4626C60.6903 35.4767 60.411 35.4767 60.1322 35.4626C58.2402 35.3156 56.3571 35.0708 54.4904 34.7292C51.5198 34.229 48.4827 34.2768 45.5293 34.8702C43.8901 35.1843 42.2313 35.3853 40.5646 35.472C35.2236 35.6883 33.5217 32.5383 32.9763 30.6389C32.9046 30.4038 32.845 30.1653 32.7977 29.9242C32.2337 29.6696 31.7544 29.259 31.4162 28.7408C31.078 28.2227 30.895 27.6186 30.8889 26.9999C30.8589 26.3246 30.8904 25.6479 30.9829 24.9782C31.2032 23.0718 31.9125 21.2546 33.0421 19.7032C36.0481 15.5821 40.4549 12.7 45.4353 11.5978C48.837 10.8007 52.3769 10.8007 55.7786 11.5978C60.4092 12.6318 64.541 15.2324 67.476 18.9603C68.3563 20.2273 69.0498 21.6144 69.5352 23.0788C69.8437 24.1133 70.033 25.1796 70.0994 26.2571C70.2383 26.9872 70.1216 27.7429 69.7688 28.397C69.416 29.0512 68.8488 29.5639 68.1624 29.849C68.0393 30.3727 67.8823 30.8878 67.6922 31.3911C66.6579 33.9675 64.1379 35.4626 60.9691 35.4626ZM50.6258 30.3474C52.1741 30.3456 53.7193 30.484 55.2426 30.7611C56.9598 31.0771 58.6923 31.3031 60.4331 31.4381C61.2794 31.5133 63.3104 31.5039 63.9216 29.9524C64.0767 29.5059 64.2054 29.0506 64.3072 28.589C64.373 28.3163 64.4388 28.0436 64.514 27.7709L64.8431 26.5674L66.0373 26.3323C65.9985 25.6666 65.885 25.0073 65.6988 24.367C65.3328 23.2638 64.8104 22.2188 64.1473 21.2641C62.6804 19.1578 59.2107 16.5626 54.8007 15.5C52.0177 14.846 49.121 14.846 46.338 15.5C42.3437 16.3787 38.7952 18.6565 36.3332 21.9223L36.1828 22.1291C35.4962 23.1282 35.0667 24.2812 34.9321 25.486C34.8958 25.7668 34.8739 26.0493 34.8663 26.3323L36.2486 26.5862L36.5212 27.912C36.5683 28.1188 36.6059 28.3163 36.6435 28.5232C36.6961 28.84 36.7651 29.1539 36.8504 29.4635C37.1418 30.4884 37.7907 31.5321 40.4423 31.4193C41.9261 31.3326 43.4025 31.1472 44.8617 30.8645C46.7708 30.5268 48.7058 30.3569 50.6446 30.3568L50.6258 30.3474Z" fill="black"/>
<path d="M34.5749 28.3069C44.926 25.4082 55.8743 25.4082 66.2254 28.3069H34.5749Z" fill="#1EC777"/>
<path d="M35.1108 30.2345L34.0389 26.3887C44.7417 23.3773 56.068 23.3773 66.7708 26.3887L65.6894 30.2345C60.8556 28.8771 55.8627 28.1688 50.8421 28.1283C45.525 28.0804 40.2281 28.7896 35.1108 30.2345Z" fill="black"/>
<path d="M49.2718 23.0319C49.6488 23.1816 50.0509 23.2582 50.4566 23.2575C51.2845 23.2554 52.0808 22.9396 52.6851 22.3736C52.3635 22.0634 51.9994 21.8006 51.6037 21.5932C51.272 21.8312 50.8741 21.9594 50.4659 21.9599C50.2176 21.9612 49.9716 21.9132 49.7419 21.8189C49.3665 21.6852 49.0392 21.443 48.8016 21.123C48.3592 21.1851 47.9283 21.3118 47.5228 21.4992C47.9012 22.2048 48.5226 22.7493 49.2718 23.0319Z" fill="white"/>
<path d="M53.5125 21.1514L53.569 20.9915V20.9257H52.1773C52.0293 21.1769 51.8308 21.3946 51.5943 21.5651C51.99 21.7726 52.3541 22.0354 52.6757 22.3456C53.0416 22.0162 53.3278 21.6078 53.5125 21.1514Z" fill="white"/>
<path d="M47.1937 19.8253C47.1685 20.4067 47.2983 20.9844 47.5698 21.4991C47.9754 21.3117 48.4063 21.185 48.8486 21.1229C48.6824 20.8867 48.568 20.6179 48.5129 20.3344C48.4578 20.0508 48.4632 19.7587 48.5289 19.4774C48.0716 19.5401 47.6234 19.6569 47.1937 19.8253Z" fill="white"/>
<path d="M48.6136 19.2143C48.7619 18.8373 49.021 18.5142 49.3568 18.2876C49.6925 18.061 50.0891 17.9415 50.4942 17.9449C50.7413 17.9467 50.9863 17.9912 51.2182 18.0765C51.6643 18.2563 52.0312 18.5898 52.2525 19.0168H53.663V18.9416C53.5189 18.4688 53.2698 18.0346 52.9344 17.6715C52.599 17.3084 52.1859 17.0258 51.726 16.8447C50.9773 16.5633 50.152 16.5633 49.4034 16.8447C49.4086 16.8853 49.4086 16.9264 49.4034 16.967C49.4011 17.0918 49.3511 17.211 49.2637 17.3002C49.1763 17.3894 49.058 17.4417 48.9332 17.4465C49.0188 17.7421 48.9851 18.0594 48.8392 18.3304C48.7472 18.5053 48.6025 18.6468 48.4255 18.7347C48.1753 18.8703 47.8835 18.9072 47.6074 18.8382H47.4852V18.8852C47.3726 19.1865 47.3091 19.504 47.2971 19.8255C47.6937 19.6646 48.1068 19.548 48.5289 19.4776C48.5571 19.3835 48.576 19.2989 48.6136 19.2143Z" fill="white"/>
</svg>
