<svg width="16" height="16" viewBox="0 0 16 16" fill="none" xmlns="http://www.w3.org/2000/svg">
<path fill-rule="evenodd" clip-rule="evenodd" d="M15 8C15 11.866 11.866 15 8 15C4.13401 15 1 11.866 1 8C1 4.13401 4.13401 1 8 1C11.866 1 15 4.13401 15 8ZM12.0303 6.28033C12.3232 5.98744 12.3232 5.51256 12.0303 5.21967C11.7374 4.92678 11.2626 4.92678 10.9697 5.21967L7 9.18934L5.03033 7.21967C4.73744 6.92678 4.26256 6.92678 3.96967 7.21967C3.67678 7.51256 3.67678 7.98744 3.96967 8.28033L6.46967 10.7803C6.76256 11.0732 7.23744 11.0732 7.53033 10.7803L12.0303 6.28033Z" fill="#3CBF7C"/>
</svg>
