<svg width="13" height="14" viewBox="0 0 13 14" fill="none" xmlns="http://www.w3.org/2000/svg">
<path d="M9.23596 6.18982C9.23596 5.25787 9.60503 4.88738 10.5384 4.88738C9.60645 4.88738 9.23596 4.51831 9.23596 3.58494C9.23596 4.51842 8.8669 4.88738 7.93352 4.88738C8.8669 4.88879 9.23596 5.25787 9.23596 6.18982ZM10.0478 6.68911C10.0478 7.3056 9.8032 7.5575 9.17942 7.5575C9.79591 7.5575 10.0478 7.8021 10.0478 8.41859C10.0478 7.8021 10.2924 7.5575 10.9162 7.5575C10.2924 7.55023 10.0479 7.30855 10.0479 6.68911H10.0478ZM6.81611 4.25197C6.81611 3.81062 6.99126 3.63549 7.4326 3.63549C6.99125 3.63549 6.81611 3.46034 6.81611 3.019C6.81611 3.46035 6.64096 3.63549 6.19962 3.63549C6.64108 3.63549 6.81611 3.81063 6.81611 4.25197ZM8.53256 10.6285C7.18691 10.1237 6.03032 9.21513 5.22102 8.02714C4.4119 6.83937 3.98983 5.43042 4.01265 3.99328C4.03546 2.55628 4.50214 1.16139 5.34861 0C3.88736 0.349193 2.57796 1.16134 1.61608 2.31529C0.654019 3.46924 0.0907413 4.90322 0.010059 6.40342C-0.0706233 7.90361 0.335734 9.38959 1.16856 10.6401C2.0014 11.8905 3.21593 12.8383 4.63128 13.342C6.04671 13.846 7.58696 13.8789 9.02255 13.4359C10.4582 12.9931 11.712 12.098 12.5977 10.8843C11.2475 11.2083 9.83118 11.119 8.53256 10.6282V10.6285Z" fill="white"/>
</svg>
