<svg width="15" height="14" viewBox="0 0 15 14" fill="none" xmlns="http://www.w3.org/2000/svg">
<path fill-rule="evenodd" clip-rule="evenodd" d="M7.31444 1.77333V0.435554C7.31444 0.202266 7.50108 0 7.75 0C7.99892 0 8.18556 0.202255 8.18556 0.435554V1.75783C8.18556 2.00674 7.9833 2.19338 7.75 2.19338C7.50109 2.2089 7.31444 2.00664 7.31444 1.77335V1.77333ZM3.73667 3.60893L2.80328 2.67554C2.63216 2.50443 2.63216 2.22449 2.80328 2.05338C2.97439 1.88226 3.25433 1.88226 3.42544 2.05338L4.35883 2.98677C4.52995 3.15788 4.52995 3.43782 4.35883 3.60893C4.18783 3.77993 3.90778 3.77993 3.73667 3.60893ZM1.18556 7.43558H2.50783C2.75675 7.43558 2.94339 7.23333 2.94339 7.00003C2.94339 6.75111 2.74113 6.56447 2.50783 6.56447H1.18556C0.952267 6.56447 0.75 6.75111 0.75 7.00003C0.75 7.24895 0.952256 7.43558 1.18556 7.43558ZM4.35889 11.0133L3.4255 11.9467C3.25438 12.1178 2.97444 12.1178 2.80333 11.9467C2.63222 11.7756 2.63222 11.4957 2.80333 11.3246L3.73672 10.3912C3.90784 10.2201 4.18778 10.2201 4.35889 10.3912C4.52989 10.5622 4.52989 10.8422 4.35889 11.0133ZM8.18556 13.5644V12.2422C8.18556 11.9933 7.9833 11.8066 7.75 11.8066C7.50109 11.8066 7.31444 12.0089 7.31444 12.2422V13.5644C7.31444 13.8134 7.5167 14 7.75 14C7.99891 14 8.18556 13.7977 8.18556 13.5644ZM11.7633 10.3911L12.6967 11.3245C12.8678 11.4956 12.8678 11.7756 12.6967 11.9467C12.5256 12.1178 12.2457 12.1178 12.0746 11.9467L11.1412 11.0133C10.97 10.8422 10.97 10.5622 11.1412 10.3911C11.3122 10.2201 11.5922 10.2201 11.7633 10.3911ZM14.3144 6.56447H12.9922C12.7433 6.56447 12.5566 6.76673 12.5566 7.00003C12.5566 7.24894 12.7589 7.43558 12.9922 7.43558H14.3144C14.5634 7.43558 14.75 7.23333 14.75 7.00003C14.75 6.75111 14.5477 6.56447 14.3144 6.56447ZM11.1411 2.98671L12.0745 2.05332C12.2456 1.88221 12.5256 1.88221 12.6967 2.05332C12.8678 2.22444 12.8678 2.50438 12.6967 2.67549L11.7633 3.60887C11.5922 3.77999 11.3122 3.77999 11.1411 3.60887C10.9701 3.43787 10.9701 3.15782 11.1411 2.98671ZM7.75 10.4689C9.61664 10.4689 11.1411 8.94449 11.1411 7.07781C11.1411 5.21112 9.61669 3.68671 7.75 3.68671C5.88331 3.68671 4.35889 5.21112 4.35889 7.07781C4.35889 8.94449 5.88331 10.4689 7.75 10.4689Z" fill="#735CF7"/>
</svg>
