<svg width="110" height="114" viewBox="0 0 110 114" fill="none" xmlns="http://www.w3.org/2000/svg">
<path d="M29.511 101.466C29.4314 101.332 29.3519 101.197 29.2726 101.062L31.6955 99.7645C30.8288 98.146 29.9555 96.5385 29.0834 94.9334C28.0165 92.9695 26.9516 91.0094 25.9035 89.0377C34.4137 89.7616 43.0044 90.1442 51.574 90.158L51.5787 87.2404C53.0621 87.2274 54.5469 87.2024 56.0331 87.1653C55.5636 87.4936 55.0956 87.8218 54.6285 88.1493C50.9524 90.7265 47.3357 93.2621 43.5689 95.5394C39.6248 97.911 35.5678 99.9358 31.3112 101.708L29.8245 102.327L29.8511 102.379L29.7167 102.331L29.7538 101.877L29.511 101.466ZM29.6297 102.3C29.6298 102.3 29.63 102.3 29.6303 102.3L29.6297 102.3Z" fill="#B998FB" stroke="#20242D" stroke-width="3"/>
<path d="M42.4949 70.6242L42.4903 70.6233C37.9645 69.7677 33.4491 68.914 28.9774 68.0131L28.9574 68.0089C28.6864 67.9523 28.3917 67.8908 28.0769 67.8361C28.1229 67.6616 28.1643 67.5018 28.1979 67.3708L28.2561 67.1437L28.2743 67.0724L28.276 67.0661C28.6151 65.9622 28.942 64.8496 29.2659 63.7472L29.2672 63.7426C29.5955 62.6253 29.9208 61.5185 30.2573 60.4237L30.2599 60.4153L30.2624 60.4069C31.5374 56.0799 32.8093 51.7638 34.1283 47.4914L31.2938 46.6164C31.4992 45.9216 31.7038 45.2261 31.9074 44.5296C31.9145 44.5278 31.9218 44.5265 31.9292 44.5257C31.9329 44.5252 31.9364 44.525 31.9396 44.5248C32.1964 44.7088 32.4527 44.8925 32.7086 45.0758C35.4431 47.0347 38.1274 48.9578 40.7766 50.9195L40.7793 50.9216C51.0532 58.4935 60.8915 66.8071 68.0824 77.2703L68.1158 77.3189L68.1529 77.3648C68.1626 77.3767 68.1708 77.3903 68.1783 77.4115C68.1865 77.4345 68.1959 77.472 68.1992 77.528L68.2556 78.4583C67.3398 78.297 66.4238 78.1333 65.5076 77.9675L66.0574 75.2102C58.2289 73.6492 50.3589 72.1361 42.4949 70.6242ZM26.0788 70.5599C26.3218 70.6101 26.6628 70.6806 26.9807 70.7083C27.4345 70.7569 27.8626 70.845 28.3695 70.9508L28.3695 70.9509L28.3797 70.9529C29.0343 71.0848 29.6898 71.2157 30.346 71.3457C29.5229 71.2013 28.7056 71.0415 27.8723 70.8785L27.8723 70.8784L27.8595 70.8761C27.5433 70.8171 27.2229 70.7733 26.9394 70.7348L26.9139 70.7313C26.6289 70.6926 26.378 70.6585 26.1351 70.6156C25.8244 70.5606 25.58 70.4992 25.3847 70.4277L25.8888 70.5217C25.941 70.5315 26.0054 70.5448 26.0788 70.5599ZM24.752 68.5407L24.6749 68.7556C24.7507 68.3431 24.8832 67.8921 25.045 67.4022C25.0947 67.252 25.1505 67.0888 25.2082 66.9202C25.2182 66.8909 25.2282 66.8615 25.2383 66.832C25.0965 67.3786 24.8877 68.1625 24.752 68.5407Z" fill="#B998FB" stroke="#20242D" stroke-width="3"/>
<path d="M80.7825 35.4618L80.7843 35.4569C82.4645 30.8072 84.468 26.2602 86.6221 21.8223L87.9125 19.1638L85.0048 19.6914C76.8645 21.1685 68.6821 21.9325 60.4568 21.9836L58.4947 21.9957L59.0211 23.8859L59.0253 23.9011C59.7166 26.3835 60.4109 28.8768 61.1535 31.4138L64.0327 30.5711C63.4805 28.6845 62.9548 26.8207 62.4344 24.9581C69.2104 24.8246 75.9574 24.2165 82.675 23.134C80.9596 26.8116 79.3563 30.5814 77.9636 34.4354C75.8284 40.2815 74.5384 46.2412 73.3198 52.2352L73.3196 52.2359C72.7708 54.9422 72.1304 57.5522 71.3161 60.1655L74.1803 61.058C75.0308 58.3283 75.695 55.617 76.2596 52.8329C77.4781 46.8394 78.7317 41.0764 80.7825 35.4618ZM68.9972 54.8331C64.9329 44.0398 61.3932 33.0369 58.4251 21.8661C58.4442 21.8531 58.4677 21.8397 58.4954 21.8278C58.5442 21.8067 58.5861 21.7991 58.6126 21.7976C68.5181 21.8799 78.4314 20.7782 88.1399 18.7369C88.1483 18.7383 88.1637 18.7418 88.1862 18.7505C88.2408 18.7714 88.3004 18.8094 88.3481 18.8561C86.8887 21.8242 85.4121 24.8339 84.0731 27.9728C81.628 33.5506 79.4998 39.3701 78.1113 45.352L78.1099 45.3582C77.6918 47.1943 77.3309 48.9978 76.9753 50.7744C76.1461 54.9178 75.3463 58.9143 73.9196 62.834C73.8918 62.8939 73.8661 62.9327 73.848 62.956C73.841 62.965 73.8349 62.9719 73.8301 62.977L72.7917 62.9601L72.5112 63.7423C71.4409 61.2511 70.4898 58.7526 69.5159 56.194C69.344 55.7423 69.1713 55.2888 68.9972 54.8331Z" fill="#B998FB" stroke="#20242D" stroke-width="3"/>
</svg>
