<svg width="121" height="126" viewBox="0 0 121 126" fill="none" xmlns="http://www.w3.org/2000/svg">
<path d="M25.854 94.8772L23.1123 94.6198L24.3831 97.0628C25.9998 100.171 27.6832 103.27 29.3551 106.347C30.3146 108.113 31.2702 109.873 32.2074 111.623L34.8521 110.206C33.8963 108.422 32.9325 106.648 31.97 104.876C30.7462 102.623 29.5244 100.374 28.3234 98.1112C37.8073 98.9258 47.3828 99.3564 56.9345 99.3718L56.9393 96.3718C46.5584 96.355 36.146 95.8434 25.854 94.8772ZM32.6478 112.976L32.6865 112.501L32.4437 112.091C29.0836 106.411 26.0535 100.553 23.0542 94.6096C23.0561 94.6052 23.0587 94.6001 23.0622 94.5949C23.0663 94.5888 23.0705 94.5839 23.0743 94.5802C36.0225 95.8885 49.0234 96.3997 62.1228 96.0612C62.1234 96.0621 62.1241 96.0631 62.1248 96.0641C62.1393 96.086 62.153 96.1132 62.1634 96.1434C62.1694 96.1606 62.1735 96.1766 62.1762 96.1909C61.5811 96.6068 60.988 97.0226 60.3962 97.4376C56.338 100.283 52.3403 103.085 48.1768 105.603C43.816 108.225 39.3305 110.463 34.6252 112.422L33.1385 113.041L33.6569 114.073C33.6425 114.05 33.6287 114.029 33.6158 114.008L33.6081 113.996C33.5345 113.881 33.4846 113.802 33.4485 113.74L33.1735 113.264L32.6643 113.081C32.6591 113.075 32.6519 113.066 32.6428 113.053C32.6437 113.032 32.6453 113.006 32.6478 112.976Z" fill="#3CBF7C" stroke="black" stroke-width="3"/>
<path d="M46.8827 78.116L46.8781 78.1152C41.8819 77.1706 36.8961 76.228 31.9583 75.2331L31.9378 75.2289C31.5895 75.1562 31.209 75.0767 30.801 75.0103C30.8691 74.7544 30.9305 74.5174 30.9781 74.3326C31.004 74.2319 31.0258 74.1462 31.0422 74.082L31.0624 74.0031L31.0651 73.9926C31.4396 72.7737 31.8006 71.5449 32.1587 70.3265L32.1599 70.3221C32.5223 69.0888 32.8816 67.866 33.2535 66.6563L33.2561 66.6479L33.2586 66.6395C34.6661 61.8629 36.0704 57.0972 37.5269 52.3796L34.6604 51.4947C33.1981 56.231 31.7891 61.0125 30.3834 65.7831C30.0064 67.0095 29.6431 68.246 29.2829 69.472L29.2816 69.4764C28.9192 70.7097 28.5599 71.9325 28.188 73.1421L28.1799 73.1687L28.1727 73.1955C28.1625 73.2338 28.1427 73.3107 28.1159 73.4153C27.98 73.9451 27.6621 75.1847 27.4717 75.7156L27.0333 76.938C26.998 76.7119 27.0001 76.4144 27.0599 76.0286C27.139 75.5193 27.3009 74.9609 27.5004 74.3571C27.5564 74.1877 27.6188 74.0052 27.6829 73.8179C27.8246 73.4036 27.9745 72.9653 28.0813 72.5909C28.4767 71.2946 28.8703 69.9745 29.2624 68.6598L29.2631 68.6573C29.6573 67.3354 30.0499 66.0189 30.4437 64.7281L30.4463 64.7196L30.4488 64.7112C31.2119 62.1004 31.9883 59.5005 32.7662 56.8958L32.7668 56.8939C33.5441 54.2912 34.3229 51.6836 35.0887 49.0636L35.0936 49.0469L35.094 49.0452C35.1043 49.0373 35.1258 49.0236 35.1612 49.0119C35.2079 48.9964 35.2557 48.9922 35.2923 48.9958C35.3036 48.9969 35.3116 48.9984 35.3167 48.9997C35.6115 49.211 35.9057 49.4218 36.1995 49.6322C39.218 51.7946 42.1823 53.9183 45.108 56.0848L45.1107 56.0868C56.4565 64.4488 67.3345 73.6389 75.2878 85.2115L75.3212 85.2601L75.3584 85.306C75.3963 85.3528 75.4351 85.4289 75.4439 85.5749L75.5027 86.5445L76.2554 86.8286C76.2529 86.8483 76.2489 86.8693 76.2431 86.891C76.24 86.9028 76.2365 86.9139 76.2329 86.9243C70.3461 85.8972 64.4514 84.773 58.5431 83.6461L58.5408 83.6457L58.5349 83.6446C55.9144 83.1556 53.2803 82.6549 50.6432 82.1536L50.6415 82.1533C48.0092 81.6529 45.3739 81.152 42.7514 80.6626C41.4291 80.3913 40.1104 80.1452 38.8071 79.902L38.8007 79.9008C37.4865 79.6556 36.1878 79.4132 34.8897 79.1467L34.8515 79.1389L34.813 79.133C33.4398 78.9246 32.1075 78.6642 30.7396 78.3967L30.7396 78.3966L30.7268 78.3942C30.3821 78.3299 30.0321 78.282 29.7188 78.2395L29.6892 78.2355C29.3757 78.1929 29.096 78.1549 28.8247 78.107C28.2565 78.0065 27.8684 77.8837 27.5907 77.7134L27.5762 77.7045L27.5614 77.6959C27.419 77.6129 27.318 77.5284 27.2446 77.442L28.6085 77.6965C28.6711 77.7082 28.746 77.7237 28.83 77.741C29.099 77.7965 29.4601 77.8711 29.8005 77.9006C30.3108 77.9551 30.7911 78.0542 31.3504 78.1709L31.3504 78.1709L31.3605 78.173C36.3191 79.1721 41.323 80.1181 46.3165 81.0621L46.3183 81.0625C55.0009 82.7318 63.6776 84.3999 72.3067 86.1206L72.8933 83.1785C64.2517 81.4554 55.5642 79.7851 46.8827 78.116Z" fill="#3CBF7C" stroke="black" stroke-width="3"/>
<path d="M89.0328 39.0923L89.0345 39.0874C90.8917 33.9478 93.1059 28.923 95.4855 24.0204L96.7759 21.3619L93.8683 21.8895C84.8729 23.5218 75.8311 24.366 66.7417 24.4225L64.7796 24.4346L65.306 26.3248L65.3106 26.3414C66.0738 29.082 66.8401 31.8336 67.6595 34.6332L70.5387 33.7905C69.9097 31.6415 69.3118 29.5193 68.7195 27.3983C76.358 27.2573 83.9632 26.5697 91.5345 25.3355C89.5953 29.4764 87.7833 33.7228 86.2141 38.0652C83.8612 44.5073 82.4389 51.0765 81.0936 57.6937L81.0934 57.6944C80.4867 60.6861 79.7785 63.5727 78.8777 66.4638L81.7419 67.3562C82.6789 64.3488 83.4109 61.3609 84.0334 58.2914C85.3786 51.6749 86.7643 45.3026 89.0328 39.0923ZM76.0232 60.5861C71.5234 48.6363 67.6058 36.4538 64.3228 24.085C64.3274 24.0794 64.3332 24.0729 64.3405 24.0655C64.3775 24.0278 64.4368 23.9845 64.5138 23.9514C64.586 23.9203 64.6524 23.9073 64.7017 23.9053C75.6329 23.9965 86.5739 22.78 97.2897 20.5256C97.3017 20.5251 97.3413 20.5261 97.4083 20.5518C97.495 20.585 97.5856 20.6447 97.6555 20.7179C97.6836 20.7473 97.7027 20.7728 97.7155 20.7926C96.0896 24.0993 94.4449 27.4475 92.9548 30.9405C90.2581 37.0925 87.9123 43.5076 86.3822 50.0993L86.3808 50.1055C85.9213 52.1234 85.5239 54.1094 85.1319 56.0681C84.2149 60.6498 83.3279 65.0819 81.7473 69.4227C81.671 69.5896 81.5985 69.6491 81.5772 69.6641C81.5576 69.6778 81.5503 69.6778 81.5406 69.6776L80.4669 69.6602L80.1181 70.6327C80.0858 70.6299 80.0527 70.6233 80.022 70.6133C80.0032 70.6071 79.9881 70.6005 79.9769 70.5947C78.7645 67.7858 77.6925 64.9695 76.5956 62.0879C76.4058 61.5894 76.2153 61.0889 76.0232 60.5861Z" fill="#3CBF7C" stroke="black" stroke-width="3"/>
</svg>
