<svg width="24" height="24" viewBox="0 0 24 24" fill="none" xmlns="http://www.w3.org/2000/svg">
<path fill-rule="evenodd" clip-rule="evenodd" d="M15.5748 16.2984C14.3479 17.3587 12.7488 18 11 18C7.13401 18 4 14.866 4 11C4 7.13401 7.13401 4 11 4C14.866 4 18 7.13401 18 11C18 12.8483 17.2837 14.5293 16.1135 15.7804C15.9917 15.8294 15.8777 15.9033 15.7792 16.0021C15.6911 16.0904 15.623 16.191 15.5748 16.2984ZM16.495 18.1284C14.9748 19.3019 13.0689 20 11 20C6.02944 20 2 15.9706 2 11C2 6.02944 6.02944 2 11 2C15.9706 2 20 6.02944 20 11C20 13.181 19.2242 15.1808 17.9336 16.7385L21.7469 20.5419C22.1379 20.9319 22.1387 21.5651 21.7487 21.9561C21.3587 22.3471 20.7255 22.3479 20.3345 21.9579L16.495 18.1284Z" fill="#353C4B"/>
</svg>
