<svg width="24" height="24" viewBox="0 0 24 24" fill="none" xmlns="http://www.w3.org/2000/svg">
<g clip-path="url(#clip0_98_4327)">
<path d="M5.24872 15.9638C5.36941 15.8431 5.53537 15.7727 5.71138 15.7727H21.6732C21.9648 15.7727 22.1107 16.1247 21.9045 16.3309L18.7514 19.484C18.6307 19.6047 18.4647 19.6751 18.2887 19.6751H2.32692C2.03524 19.6751 1.8894 19.3231 2.09559 19.1169L5.24872 15.9638Z" fill="url(#paint0_linear_98_4327)"/>
<path d="M5.24872 4.1911C5.37444 4.0704 5.54039 4 5.71138 4H21.6732C21.9648 4 22.1107 4.35202 21.9045 4.55821L18.7514 7.71134C18.6307 7.83203 18.4647 7.90244 18.2887 7.90244H2.32692C2.03524 7.90244 1.8894 7.55042 2.09559 7.34423L5.24872 4.1911Z" fill="url(#paint1_linear_98_4327)"/>
<path d="M18.7514 10.0397C18.6307 9.91904 18.4647 9.84863 18.2887 9.84863H2.32692C2.03524 9.84863 1.8894 10.2007 2.09559 10.4068L5.24872 13.56C5.36941 13.6807 5.53537 13.7511 5.71138 13.7511H21.6732C21.9648 13.7511 22.1107 13.399 21.9045 13.1929L18.7514 10.0397Z" fill="url(#paint2_linear_98_4327)"/>
</g>
<defs>
<linearGradient id="paint0_linear_98_4327" x1="20.1483" y1="2.11641" x2="9.10152" y2="23.2755" gradientUnits="userSpaceOnUse">
<stop stop-color="#00FFA3"/>
<stop offset="1" stop-color="#DC1FFF"/>
</linearGradient>
<linearGradient id="paint1_linear_98_4327" x1="15.3181" y1="-0.405401" x2="4.27125" y2="20.7537" gradientUnits="userSpaceOnUse">
<stop stop-color="#00FFA3"/>
<stop offset="1" stop-color="#DC1FFF"/>
</linearGradient>
<linearGradient id="paint2_linear_98_4327" x1="17.7178" y1="0.847478" x2="6.67101" y2="22.0066" gradientUnits="userSpaceOnUse">
<stop stop-color="#00FFA3"/>
<stop offset="1" stop-color="#DC1FFF"/>
</linearGradient>
<clipPath id="clip0_98_4327">
<rect width="20" height="15.6751" fill="white" transform="translate(2 4)"/>
</clipPath>
</defs>
</svg>
