<svg width="48" height="48" viewBox="0 0 48 48" fill="none" xmlns="http://www.w3.org/2000/svg">
<g clip-path="url(#clip0_1596_72780)">
<g clip-path="url(#clip1_1596_72780)">
<path d="M9.8224 32.1865C10.0759 31.9324 10.4244 31.7842 10.794 31.7842H44.3137C44.9263 31.7842 45.2325 32.5253 44.7995 32.9593L38.178 39.5975C37.9245 39.8516 37.576 39.9998 37.2064 39.9998H3.68662C3.0741 39.9998 2.76784 39.2587 3.20083 38.8246L9.8224 32.1865Z" fill="url(#paint0_linear_1596_72780)"/>
<path d="M9.82143 7.40231C10.0854 7.14822 10.4339 7 10.793 7H44.3128C44.9253 7 45.2315 7.7411 44.7985 8.17517L38.177 14.8133C37.9235 15.0674 37.575 15.2156 37.2054 15.2156H3.68565C3.07312 15.2156 2.76686 14.4745 3.19985 14.0404L9.82143 7.40231Z" fill="url(#paint1_linear_1596_72780)"/>
<path d="M38.178 19.7153C37.9245 19.4612 37.576 19.313 37.2064 19.313H3.68662C3.0741 19.313 2.76784 20.0541 3.20083 20.4882L9.8224 27.1263C10.0759 27.3804 10.4244 27.5286 10.794 27.5286H44.3137C44.9263 27.5286 45.2325 26.7875 44.7995 26.3534L38.178 19.7153Z" fill="url(#paint2_linear_1596_72780)"/>
</g>
</g>
<defs>
<linearGradient id="paint0_linear_1596_72780" x1="41.1116" y1="3.03434" x2="17.8222" y2="47.5318" gradientUnits="userSpaceOnUse">
<stop stop-color="#00FFA3"/>
<stop offset="1" stop-color="#DC1FFF"/>
</linearGradient>
<linearGradient id="paint1_linear_1596_72780" x1="30.9671" y1="-2.27445" x2="7.67766" y2="42.223" gradientUnits="userSpaceOnUse">
<stop stop-color="#00FFA3"/>
<stop offset="1" stop-color="#DC1FFF"/>
</linearGradient>
<linearGradient id="paint2_linear_1596_72780" x1="36.0075" y1="0.363349" x2="12.7181" y2="44.8608" gradientUnits="userSpaceOnUse">
<stop stop-color="#00FFA3"/>
<stop offset="1" stop-color="#DC1FFF"/>
</linearGradient>
<clipPath id="clip0_1596_72780">
<rect width="48" height="48" rx="8" fill="white"/>
</clipPath>
<clipPath id="clip1_1596_72780">
<rect width="42" height="33" fill="white" transform="translate(3 7)"/>
</clipPath>
</defs>
</svg>
