<svg width="24" height="24" viewBox="0 0 24 24" fill="none" xmlns="http://www.w3.org/2000/svg">
<path d="M4.23723 11.4221C9.06997 9.31707 12.2918 7.92914 13.9027 7.25862C18.5076 5.34391 19.4632 5.01136 20.0874 5.0001C20.2247 4.9979 20.5303 5.03182 20.7297 5.19305C20.8954 5.32901 20.9421 5.5129 20.9654 5.642C20.9861 5.77098 21.0146 6.06493 20.9913 6.2944C20.7426 8.91538 19.6627 15.2756 19.1136 18.2113C18.8831 19.4534 18.4247 19.8699 17.9818 19.9105C17.0184 19.9991 16.288 19.2744 15.3557 18.6635C13.8975 17.707 13.074 17.1119 11.6573 16.1787C10.0205 15.1003 11.0823 14.5075 12.0147 13.5389C12.2581 13.2853 16.5004 9.42766 16.5807 9.07776C16.591 9.03399 16.6014 8.87083 16.503 8.78484C16.4072 8.6986 16.2647 8.72813 16.1611 8.75144C16.0135 8.78459 13.6852 10.3251 9.16839 13.3726C8.50797 13.8269 7.9097 14.0483 7.371 14.0366C6.78051 14.0239 5.64095 13.702 4.79405 13.427C3.7581 13.0895 2.93192 12.9111 3.00443 12.3379C3.04069 12.0396 3.45249 11.7342 4.23723 11.4221V11.4221Z" fill="url(#paint0_linear_0_654)"/>
<defs>
<linearGradient id="paint0_linear_0_654" x1="12" y1="5" x2="12" y2="19.9179" gradientUnits="userSpaceOnUse">
<stop stop-color="#2AABEE"/>
<stop offset="1" stop-color="#229ED9"/>
</linearGradient>
</defs>
</svg>
