<svg width="24" height="24" viewBox="0 0 24 24" fill="none" xmlns="http://www.w3.org/2000/svg">
<path fill-rule="evenodd" clip-rule="evenodd" d="M19.7716 8.08888C19.7784 8.26376 19.7807 8.43858 19.7807 8.61346C19.7807 13.9157 16.0508 20.0367 9.23024 20.0367C7.13507 20.0367 5.18687 19.369 3.54541 18.2322C3.83557 18.264 4.13025 18.2879 4.42945 18.2879C6.16663 18.2879 7.76664 17.6439 9.0358 16.5628C7.41318 16.5389 6.04304 15.3704 5.57049 13.7805C5.79734 13.8282 6.03096 13.8521 6.26987 13.8521C6.60675 13.8521 6.93384 13.8045 7.24736 13.7091C5.54937 13.3434 4.27043 11.7218 4.27043 9.77423C4.27043 9.75038 4.27043 9.74238 4.27043 9.72648C4.77086 10.0206 5.34363 10.2034 5.95183 10.2272C4.9555 9.50381 4.30056 8.2717 4.30056 6.88056C4.30056 6.14922 4.48295 5.4576 4.804 4.8614C6.63237 7.2939 9.3659 8.89174 12.4476 9.05867C12.3843 8.76455 12.3519 8.4546 12.3519 8.14458C12.3519 5.92671 14.0122 4.13013 16.0606 4.13013C17.127 4.13013 18.0902 4.61511 18.7662 5.39414C19.6126 5.21925 20.4054 4.88541 21.1229 4.42435C20.8448 5.36237 20.2577 6.14919 19.4905 6.64204C20.2411 6.54665 20.9571 6.33218 21.6211 6.01421C21.1229 6.81709 20.4959 7.52447 19.7716 8.08888Z" fill="#1EA1F2"/>
</svg>
